{
    "asset" : {
        "generator" : "Khronos glTF Blender I/O v1.6.16",
        "version" : "2.0"
    },
    "scene" : 0,
    "scenes" : [
        {
            "name" : "Scene",
            "nodes" : [
                0,
                1,
                2,
                3
            ]
        }
    ],
    "nodes" : [
        {
            "name" : "Light",
            "rotation" : [
                0.16907575726509094,
                0.7558803558349609,
                -0.27217137813568115,
                0.570947527885437
            ],
            "translation" : [
                3.3736813068389893,
                3.8664627075195312,
                3.150235652923584
            ]
        },
        {
            "name" : "Camera",
            "rotation" : [
                0.483536034822464,
                0.33687159419059753,
                -0.20870360732078552,
                0.7804827094078064
            ],
            "translation" : [
                7.358891487121582,
                4.958309173583984,
                6.925790786743164
            ]
        },
        {
            "mesh" : 0,
            "name" : "Cube",
            "translation" : [
                0,
                2.5029373168945312,
                0
            ]
        },
        {
            "mesh" : 1,
            "name" : "Cube.002",
            "rotation" : [
                0,
                -0.7071068286895752,
                0,
                0.7071068286895752
            ],
            "scale" : [
                2.2645325660705566,
                1.1322662830352783,
                1.1322662830352783
            ],
            "translation" : [
                -1.2587668895721436,
                6.344268798828125,
                -0.19268420338630676
            ]
        }
    ],
    "materials" : [
        {
            "doubleSided" : true,
            "name" : "Material.001",
            "pbrMetallicRoughness" : {
                "baseColorTexture" : {
                    "index" : 0
                },
                "metallicFactor" : 0,
                "roughnessFactor" : 0.5
            }
        },
        {
            "doubleSided" : true,
            "name" : "Material.002",
            "pbrMetallicRoughness" : {
                "baseColorTexture" : {
                    "index" : 1
                },
                "metallicFactor" : 0,
                "roughnessFactor" : 0.5
            }
        },
        {
            "doubleSided" : true,
            "name" : "Material.008",
            "pbrMetallicRoughness" : {
                "baseColorFactor" : [
                    0.023085802793502808,
                    0.023085802793502808,
                    0.023085802793502808,
                    1
                ],
                "metallicFactor" : 0,
                "roughnessFactor" : 0.5
            }
        },
        {
            "doubleSided" : true,
            "name" : "Material.003",
            "pbrMetallicRoughness" : {
                "baseColorTexture" : {
                    "index" : 2
                },
                "metallicFactor" : 0,
                "roughnessFactor" : 0.5
            }
        }
    ],
    "meshes" : [
        {
            "name" : "Cube.001",
            "primitives" : [
                {
                    "attributes" : {
                        "POSITION" : 0,
                        "NORMAL" : 1,
                        "TEXCOORD_0" : 2
                    },
                    "indices" : 3,
                    "material" : 0
                },
                {
                    "attributes" : {
                        "POSITION" : 4,
                        "NORMAL" : 5,
                        "TEXCOORD_0" : 6
                    },
                    "indices" : 7,
                    "material" : 1
                },
                {
                    "attributes" : {
                        "POSITION" : 8,
                        "NORMAL" : 9,
                        "TEXCOORD_0" : 10
                    },
                    "indices" : 11,
                    "material" : 2
                }
            ]
        },
        {
            "name" : "Cube.003",
            "primitives" : [
                {
                    "attributes" : {
                        "POSITION" : 12,
                        "NORMAL" : 13,
                        "TEXCOORD_0" : 14
                    },
                    "indices" : 15,
                    "material" : 3
                }
            ]
        }
    ],
    "textures" : [
        {
            "sampler" : 0,
            "source" : 0
        },
        {
            "sampler" : 0,
            "source" : 1
        },
        {
            "sampler" : 0,
            "source" : 2
        }
    ],
    "images" : [
        {
            "mimeType" : "image/jpeg",
            "name" : "red_brick",
            "uri" : "red_brick.jpg"
        },
        {
            "mimeType" : "image/jpeg",
            "name" : "white_wood",
            "uri" : "white_wood.jpg"
        },
        {
            "mimeType" : "image/jpeg",
            "name" : "roof",
            "uri" : "roof.jpg"
        }
    ],
    "accessors" : [
        {
            "bufferView" : 0,
            "componentType" : 5126,
            "count" : 11887,
            "max" : [
                2.5,
                2.504058837890625,
                2.5
            ],
            "min" : [
                -2.5,
                -2.5,
                -2.5
            ],
            "type" : "VEC3"
        },
        {
            "bufferView" : 1,
            "componentType" : 5126,
            "count" : 11887,
            "type" : "VEC3"
        },
        {
            "bufferView" : 2,
            "componentType" : 5126,
            "count" : 11887,
            "type" : "VEC2"
        },
        {
            "bufferView" : 3,
            "componentType" : 5123,
            "count" : 43392,
            "type" : "SCALAR"
        },
        {
            "bufferView" : 4,
            "componentType" : 5126,
            "count" : 15173,
            "max" : [
                2.507329225540161,
                2.5,
                2.5
            ],
            "min" : [
                -2.5,
                -2.5,
                -2.513460636138916
            ],
            "type" : "VEC3"
        },
        {
            "bufferView" : 5,
            "componentType" : 5126,
            "count" : 15173,
            "type" : "VEC3"
        },
        {
            "bufferView" : 6,
            "componentType" : 5126,
            "count" : 15173,
            "type" : "VEC2"
        },
        {
            "bufferView" : 7,
            "componentType" : 5123,
            "count" : 32076,
            "type" : "SCALAR"
        },
        {
            "bufferView" : 8,
            "componentType" : 5126,
            "count" : 9534,
            "max" : [
                2.232410430908203,
                2.1354167461395264,
                2.1956419944763184
            ],
            "min" : [
                -2.234469413757324,
                -1.8229167461395264,
                -2.299044609069824
            ],
            "type" : "VEC3"
        },
        {
            "bufferView" : 9,
            "componentType" : 5126,
            "count" : 9534,
            "type" : "VEC3"
        },
        {
            "bufferView" : 10,
            "componentType" : 5126,
            "count" : 9534,
            "type" : "VEC2"
        },
        {
            "bufferView" : 11,
            "componentType" : 5123,
            "count" : 38520,
            "type" : "SCALAR"
        },
        {
            "bufferView" : 12,
            "componentType" : 5126,
            "count" : 36,
            "max" : [
                1.250523328781128,
                0.04950535297393799,
                1.25
            ],
            "min" : [
                -1.1343443393707275,
                -1.25,
                -3.5339128971099854
            ],
            "type" : "VEC3"
        },
        {
            "bufferView" : 13,
            "componentType" : 5126,
            "count" : 36,
            "type" : "VEC3"
        },
        {
            "bufferView" : 14,
            "componentType" : 5126,
            "count" : 36,
            "type" : "VEC2"
        },
        {
            "bufferView" : 15,
            "componentType" : 5123,
            "count" : 48,
            "type" : "SCALAR"
        }
    ],
    "bufferViews" : [
        {
            "buffer" : 0,
            "byteLength" : 142644,
            "byteOffset" : 0
        },
        {
            "buffer" : 0,
            "byteLength" : 142644,
            "byteOffset" : 142644
        },
        {
            "buffer" : 0,
            "byteLength" : 95096,
            "byteOffset" : 285288
        },
        {
            "buffer" : 0,
            "byteLength" : 86784,
            "byteOffset" : 380384
        },
        {
            "buffer" : 0,
            "byteLength" : 182076,
            "byteOffset" : 467168
        },
        {
            "buffer" : 0,
            "byteLength" : 182076,
            "byteOffset" : 649244
        },
        {
            "buffer" : 0,
            "byteLength" : 121384,
            "byteOffset" : 831320
        },
        {
            "buffer" : 0,
            "byteLength" : 64152,
            "byteOffset" : 952704
        },
        {
            "buffer" : 0,
            "byteLength" : 114408,
            "byteOffset" : 1016856
        },
        {
            "buffer" : 0,
            "byteLength" : 114408,
            "byteOffset" : 1131264
        },
        {
            "buffer" : 0,
            "byteLength" : 76272,
            "byteOffset" : 1245672
        },
        {
            "buffer" : 0,
            "byteLength" : 77040,
            "byteOffset" : 1321944
        },
        {
            "buffer" : 0,
            "byteLength" : 432,
            "byteOffset" : 1398984
        },
        {
            "buffer" : 0,
            "byteLength" : 432,
            "byteOffset" : 1399416
        },
        {
            "buffer" : 0,
            "byteLength" : 288,
            "byteOffset" : 1399848
        },
        {
            "buffer" : 0,
            "byteLength" : 96,
            "byteOffset" : 1400136
        }
    ],
    "samplers" : [
        {
            "magFilter" : 9729,
            "minFilter" : 9987
        }
    ],
    "buffers" : [
        {
            "byteLength" : 1400232,
            "uri" : "NewHouse.bin"
        }
    ]
}
